# xmcd
#
# Track frame offsets: 
#        150
#        23789
#        48782
#        69694
#        89642
#        111291
#        132702
#        149084
#        166595
#        184701
#
# Disc length: 2764 seconds
#
# Revision: 1
# Processed by: cddbd v1.5.2PL0 Copyright (c) Steve Scherf et al.
# Submitted via: ExactAudioCopy v0.95b3
#
DISCID=910aca0a
DTITLE=Elton John - The Captain and The Kid
DYEAR=2006
DGENRE=Rock
TTITLE0=Postcards from Richard Nixon
TTITLE1=Just Like Noah's Ark
TTITLE2=Wouldn't Have You Any Other Way (NYC)
TTITLE3=Tinderbox
TTITLE4=And the House Fell Down
TTITLE5=Blues Never Fade Away
TTITLE6=The Bridge
TTITLE7=I Must Have Lost It on the Wind
TTITLE8=Old 67
TTITLE9=The Captain and The Kid
EXTD=
EXTT0=
EXTT1=
EXTT2=
EXTT3=
EXTT4=
EXTT5=
EXTT6=
EXTT7=
EXTT8=
EXTT9=
PLAYORDER=
